<svg width="100" height="100" viewBox="0 0 100 100" fill="none" xmlns="http://www.w3.org/2000/svg">
<circle cx="50" cy="50" r="50" fill="#D0F1C0"/>
<ellipse cx="13.7997" cy="17.5025" rx="13.7997" ry="17.5025" transform="matrix(0.305989 -0.952035 0.984773 0.173846 32.6506 73.7722)" fill="#4A7AD5"/>
<path d="M63.355 58.7489C63.0047 61.0388 59.8447 62.8008 56.2968 62.6845C52.749 62.5682 50.1569 60.6176 50.5071 58.3277C50.8574 56.0379 54.0174 54.2759 57.5653 54.3922C61.1131 54.5085 63.7053 56.459 63.355 58.7489Z" fill="#2D62CB"/>
<path d="M63.355 58.7489C63.0047 61.0388 59.8447 62.8008 56.2968 62.6845C52.749 62.5682 50.1569 60.6176 50.5071 58.3277C50.8574 56.0379 54.0174 54.2759 57.5653 54.3922C61.1131 54.5085 63.7053 56.459 63.355 58.7489Z" fill="#2D62CB"/>
<path d="M63.355 58.7489C63.0047 61.0388 59.8447 62.8008 56.2968 62.6845C52.749 62.5682 50.1569 60.6176 50.5071 58.3277C50.8574 56.0379 54.0174 54.2759 57.5653 54.3922C61.1131 54.5085 63.7053 56.459 63.355 58.7489Z" fill="#2D62CB"/>
<path d="M63.355 58.7489C63.0047 61.0388 59.8447 62.8008 56.2968 62.6845C52.749 62.5682 50.1569 60.6176 50.5071 58.3277C50.8574 56.0379 54.0174 54.2759 57.5653 54.3922C61.1131 54.5085 63.7053 56.459 63.355 58.7489Z" fill="#2D62CB"/>
<path d="M63.355 58.7489C63.0047 61.0388 59.8447 62.8008 56.2968 62.6845C52.749 62.5682 50.1569 60.6176 50.5071 58.3277C50.8574 56.0379 54.0174 54.2759 57.5653 54.3922C61.1131 54.5085 63.7053 56.459 63.355 58.7489Z" fill="#2D62CB"/>
<ellipse cx="13.7997" cy="17.5025" rx="13.7997" ry="17.5025" transform="matrix(0.305989 -0.952035 0.984773 0.173846 13 56.8733)" fill="#4A7AD5"/>
<path d="M43.7045 41.8499C43.3542 44.1398 40.1942 45.9018 36.6463 45.7855C33.0985 45.6692 30.5064 43.7186 30.8566 41.4287C31.2069 39.1389 34.3669 37.3769 37.9148 37.4932C41.4626 37.6095 44.0547 39.5601 43.7045 41.8499Z" fill="#2D62CB"/>
<path d="M43.7045 41.8499C43.3542 44.1398 40.1942 45.9018 36.6463 45.7855C33.0985 45.6692 30.5064 43.7186 30.8566 41.4287C31.2069 39.1389 34.3669 37.3769 37.9148 37.4932C41.4626 37.6095 44.0547 39.5601 43.7045 41.8499Z" fill="#2D62CB"/>
<path d="M43.7045 41.8499C43.3542 44.1398 40.1942 45.9018 36.6463 45.7855C33.0985 45.6692 30.5064 43.7186 30.8566 41.4287C31.2069 39.1389 34.3669 37.3769 37.9148 37.4932C41.4626 37.6095 44.0547 39.5601 43.7045 41.8499Z" fill="#2D62CB"/>
<path d="M43.7045 41.8499C43.3542 44.1398 40.1942 45.9018 36.6463 45.7855C33.0985 45.6692 30.5064 43.7186 30.8566 41.4287C31.2069 39.1389 34.3669 37.3769 37.9148 37.4932C41.4626 37.6095 44.0547 39.5601 43.7045 41.8499Z" fill="#2D62CB"/>
<path d="M43.7045 41.8499C43.3542 44.1398 40.1942 45.9018 36.6463 45.7855C33.0985 45.6692 30.5064 43.7186 30.8566 41.4287C31.2069 39.1389 34.3669 37.3769 37.9148 37.4932C41.4626 37.6095 44.0547 39.5601 43.7045 41.8499Z" fill="#2D62CB"/>
<ellipse cx="13.7997" cy="17.5025" rx="13.7997" ry="17.5025" transform="matrix(0.305989 -0.952035 0.984773 0.173846 43.2745 47.2757)" fill="#4A7AD5"/>
<path d="M73.979 32.2523C73.6287 34.5422 70.4687 36.3042 66.9209 36.1879C63.373 36.0716 60.7809 34.121 61.1312 31.8312C61.4814 29.5413 64.6415 27.7793 68.1893 27.8956C71.7371 28.0119 74.3293 29.9625 73.979 32.2523Z" fill="#2D62CB"/>
<path d="M73.979 32.2523C73.6287 34.5422 70.4687 36.3042 66.9209 36.1879C63.373 36.0716 60.7809 34.121 61.1312 31.8312C61.4814 29.5413 64.6415 27.7793 68.1893 27.8956C71.7371 28.0119 74.3293 29.9625 73.979 32.2523Z" fill="#2D62CB"/>
<path d="M73.979 32.2523C73.6287 34.5422 70.4687 36.3042 66.9209 36.1879C63.373 36.0716 60.7809 34.121 61.1312 31.8312C61.4814 29.5413 64.6415 27.7793 68.1893 27.8956C71.7371 28.0119 74.3293 29.9625 73.979 32.2523Z" fill="#2D62CB"/>
<path d="M73.979 32.2523C73.6287 34.5422 70.4687 36.3042 66.9209 36.1879C63.373 36.0716 60.7809 34.121 61.1312 31.8312C61.4814 29.5413 64.6415 27.7793 68.1893 27.8956C71.7371 28.0119 74.3293 29.9625 73.979 32.2523Z" fill="#2D62CB"/>
<path d="M73.979 32.2523C73.6287 34.5422 70.4687 36.3042 66.9209 36.1879C63.373 36.0716 60.7809 34.121 61.1312 31.8312C61.4814 29.5413 64.6415 27.7793 68.1893 27.8956C71.7371 28.0119 74.3293 29.9625 73.979 32.2523Z" fill="#2D62CB"/>
</svg>
