<svg width="430" height="932" viewBox="0 0 430 932" fill="none" xmlns="http://www.w3.org/2000/svg">
<g clip-path="url(#clip0_130_2)">
<rect width="430" height="932" fill="#00825D"/>
<line x1="-31.4151" y1="751.757" x2="448.585" y2="314.757" stroke="#4C693A" stroke-width="25"/>
<line x1="-85.294" y1="666.282" x2="563.735" y2="677.722" stroke="#4C693A" stroke-width="25"/>
<ellipse cx="70.9725" cy="505.956" rx="69.5" ry="50" transform="rotate(-21.4548 70.9725 505.956)" fill="#2D5C21"/>
<ellipse cx="70.9725" cy="505.956" rx="69.5" ry="50" transform="rotate(-21.4548 70.9725 505.956)" fill="#2D5C21"/>
<ellipse cx="70.9725" cy="505.956" rx="69.5" ry="50" transform="rotate(-21.4548 70.9725 505.956)" fill="#2D5C21"/>
<ellipse cx="70.9725" cy="505.956" rx="69.5" ry="50" transform="rotate(-21.4548 70.9725 505.956)" fill="#2D5C21"/>
<ellipse cx="70.9725" cy="505.956" rx="69.5" ry="50" transform="rotate(-21.4548 70.9725 505.956)" fill="#2D5C21"/>
<ellipse cx="120.712" cy="363.572" rx="91.4127" ry="64.6131" transform="rotate(-21.4548 120.712 363.572)" fill="#2D5C21"/>
<ellipse cx="120.712" cy="363.572" rx="91.4127" ry="64.6131" transform="rotate(-21.4548 120.712 363.572)" fill="#2D5C21"/>
<ellipse cx="120.712" cy="363.572" rx="91.4127" ry="64.6131" transform="rotate(-21.4548 120.712 363.572)" fill="#2D5C21"/>
<ellipse cx="120.712" cy="363.572" rx="91.4127" ry="64.6131" transform="rotate(-21.4548 120.712 363.572)" fill="#2D5C21"/>
<ellipse cx="120.712" cy="363.572" rx="91.4127" ry="64.6131" transform="rotate(-21.4548 120.712 363.572)" fill="#2D5C21"/>
<ellipse cx="343.055" cy="564.169" rx="91.4127" ry="79.2227" transform="rotate(-21.4548 343.055 564.169)" fill="#2D5C21"/>
<ellipse cx="343.055" cy="564.169" rx="91.4127" ry="79.2227" transform="rotate(-21.4548 343.055 564.169)" fill="#2D5C21"/>
<ellipse cx="343.055" cy="564.169" rx="91.4127" ry="79.2227" transform="rotate(-21.4548 343.055 564.169)" fill="#2D5C21"/>
<ellipse cx="343.055" cy="564.169" rx="91.4127" ry="79.2227" transform="rotate(-21.4548 343.055 564.169)" fill="#2D5C21"/>
<ellipse cx="343.055" cy="564.169" rx="91.4127" ry="79.2227" transform="rotate(-21.4548 343.055 564.169)" fill="#2D5C21"/>
<ellipse cx="298.929" cy="89.0363" rx="91.4127" ry="59.7402" transform="rotate(10.6737 298.929 89.0363)" fill="#2D5C21"/>
<ellipse cx="298.929" cy="89.0363" rx="91.4127" ry="59.7402" transform="rotate(10.6737 298.929 89.0363)" fill="#2D5C21"/>
<ellipse cx="298.929" cy="89.0363" rx="91.4127" ry="59.7402" transform="rotate(10.6737 298.929 89.0363)" fill="#2D5C21"/>
<ellipse cx="298.929" cy="89.0363" rx="91.4127" ry="59.7402" transform="rotate(10.6737 298.929 89.0363)" fill="#2D5C21"/>
<ellipse cx="298.929" cy="89.0363" rx="91.4127" ry="59.7402" transform="rotate(10.6737 298.929 89.0363)" fill="#2D5C21"/>
<ellipse cx="322.67" cy="199" rx="29.8184" ry="28.9785" transform="rotate(10.6737 322.67 199)" fill="#2D5C21"/>
<ellipse cx="322.67" cy="199" rx="29.8184" ry="28.9785" transform="rotate(10.6737 322.67 199)" fill="#2D5C21"/>
<ellipse cx="322.67" cy="199" rx="29.8184" ry="28.9785" transform="rotate(10.6737 322.67 199)" fill="#2D5C21"/>
<ellipse cx="322.67" cy="199" rx="29.8184" ry="28.9785" transform="rotate(10.6737 322.67 199)" fill="#2D5C21"/>
<ellipse cx="322.67" cy="199" rx="29.8184" ry="28.9785" transform="rotate(10.6737 322.67 199)" fill="#2D5C21"/>
<ellipse cx="193.142" cy="455.342" rx="47.4706" ry="35.434" transform="rotate(-21.4548 193.142 455.342)" fill="#2D5C21"/>
<ellipse cx="193.142" cy="455.342" rx="47.4706" ry="35.434" transform="rotate(-21.4548 193.142 455.342)" fill="#2D5C21"/>
<ellipse cx="193.142" cy="455.342" rx="47.4706" ry="35.434" transform="rotate(-21.4548 193.142 455.342)" fill="#2D5C21"/>
<ellipse cx="193.142" cy="455.342" rx="47.4706" ry="35.434" transform="rotate(-21.4548 193.142 455.342)" fill="#2D5C21"/>
<ellipse cx="193.142" cy="455.342" rx="47.4706" ry="35.434" transform="rotate(-21.4548 193.142 455.342)" fill="#2D5C21"/>
</g>
<defs>
<clipPath id="clip0_130_2">
<rect width="430" height="932" fill="white"/>
</clipPath>
</defs>
</svg>
