<?xml version="1.0" encoding="UTF-8"?>
<svg id="Layer_1" data-name="Layer 1" xmlns="http://www.w3.org/2000/svg" viewBox="0 0 100 100">
  <defs>
    <style>
      .cls-1 {
        fill: #fce1b4;
        fill-rule: evenodd;
      }

      .cls-1, .cls-2, .cls-3, .cls-4 {
        stroke-width: 0px;
      }

      .cls-2 {
        fill: #a85b25;
      }

      .cls-3 {
        fill: #fff;
      }

      .cls-4 {
        fill: #fdcf82;
      }
    </style>
  </defs>
  <rect class="cls-3" width="100" height="100"/>
  <path class="cls-4" d="M62,86.11c0,11.32-5.15,10.89-11.5,10.89s-11.5.44-11.5-10.89,5.15-30.11,11.5-30.11,11.5,18.79,11.5,30.11Z"/>
  <path class="cls-2" d="M69,50.47c0,18.22-8.28,17.52-18.5,17.52s-18.5.7-18.5-17.52S40.28,2,50.5,2s18.5,30.25,18.5,48.47Z"/>
  <path class="cls-1" d="M68.37,57.96c-1.27,6.33-4.38,8.68-8.51,9.54.32-1.28.53-2.72.59-4.24.22-5.51-1.59-10.06-4.04-10.16-2.45-.1-4.61,4.29-4.83,9.8-.07,1.85.08,3.59.41,5.1h-.4s0,0,0,0h-.01c-.36,0-.72,0-1.08,0s-.73,0-1.09,0h0c-8.22.02-14.99.04-16.88-10.57,1.74-1.34,3.09-4.95,3.26-9.24.18-4.56-1.02-8.46-2.83-9.72.76-5.26,1.95-10.74,3.47-15.79.71,1.48,1.67,2.39,2.75,2.43,2.45.1,4.61-4.29,4.83-9.8.12-2.92-.34-5.57-1.15-7.43,2.33-3.49,4.92-5.64,7.65-5.64s5.29,2.13,7.62,5.59c-.58,1.61-.97,3.6-1.05,5.76-.22,5.51,1.59,10.06,4.04,10.16,1.13.05,2.21-.87,3.05-2.42,1.69,5.32,3.01,11.19,3.84,16.82-2.13.71-3.89,4.75-4.08,9.69-.22,5.51,1.59,10.06,4.04,10.16.14,0,.28,0,.42-.03ZM51.62,8.51c-.07,1.89-.82,3.4-1.66,3.36-.84-.03-1.46-1.59-1.39-3.48.08-1.89.82-3.4,1.66-3.36.84.03,1.46,1.59,1.39,3.48ZM37.63,37.91c.84.03,1.58-1.47,1.66-3.36.08-1.89-.55-3.45-1.39-3.48-.84-.03-1.58,1.47-1.66,3.36-.07,1.89.55,3.45,1.39,3.48ZM59.85,44.14c-.08,1.89-.82,3.4-1.66,3.36-.84-.03-1.46-1.59-1.39-3.48.07-1.89.82-3.4,1.66-3.36.84.03,1.46,1.59,1.39,3.48ZM49.97,54.35c.84.03,1.58-1.47,1.66-3.36.08-1.89-.55-3.45-1.39-3.48-.84-.03-1.58,1.47-1.66,3.36-.08,1.89.55,3.45,1.39,3.48ZM52.23,35.85c-.22,5.51-2.38,9.9-4.83,9.8-2.45-.1-4.26-4.64-4.04-10.16.22-5.51,2.38-9.9,4.83-9.8,2.45.1,4.26,4.64,4.04,10.16ZM43.26,46.88c-.1,2.62-1.13,4.71-2.3,4.66-1.17-.05-2.03-2.21-1.92-4.83.1-2.62,1.13-4.71,2.3-4.66,1.17.05,2.03,2.21,1.92,4.83ZM50.55,24.14c1.17.05,2.19-2.04,2.3-4.66.1-2.62-.76-4.79-1.92-4.83-1.17-.05-2.19,2.04-2.3,4.66-.1,2.62.76,4.79,1.92,4.83ZM65.19,33.17c-.1,2.62-1.13,4.71-2.3,4.66-1.17-.05-2.03-2.21-1.92-4.83.1-2.62,1.13-4.71,2.3-4.66,1.17.05,2.03,2.21,1.92,4.83ZM46.44,65.25c1.17.05,2.19-2.04,2.3-4.66.1-2.62-.76-4.79-1.92-4.83-1.17-.05-2.19,2.04-2.3,4.66-.1,2.62.76,4.79,1.92,4.83ZM57.1,27.69c-.08,1.89-.82,3.4-1.66,3.36-.84-.03-1.46-1.59-1.39-3.48.08-1.89.82-3.4,1.66-3.36.84.03,1.46,1.59,1.39,3.48ZM39,62.57c.84.03,1.58-1.47,1.66-3.36.08-1.89-.55-3.45-1.39-3.48-.84-.03-1.58,1.47-1.66,3.36-.07,1.89.55,3.45,1.39,3.48Z"/>
</svg>