<svg width="316" height="103" viewBox="0 0 316 103" fill="none" xmlns="http://www.w3.org/2000/svg">
<g clip-path="url(#clip0_154_370)">
<rect width="316" height="103" fill="white"/>
<circle cx="54" cy="51" r="50" fill="#D0F1C0"/>
<rect x="42" y="34" width="25" height="56" rx="12.5" fill="#F4F4F4"/>
<rect x="42" y="34" width="25" height="56" rx="12.5" fill="#F4F4F4"/>
<ellipse cx="54.5" cy="37" rx="41.5" ry="28" fill="#D73D3D"/>
<ellipse cx="54.5" cy="37" rx="41.5" ry="28" fill="#D73D3D"/>
<ellipse cx="54.5" cy="37" rx="41.5" ry="28" fill="#D73D3D"/>
<ellipse cx="29" cy="36.5" rx="12" ry="8.5" fill="#D9D9D9"/>
<ellipse cx="57.5" cy="51.5" rx="12.5" ry="8.5" fill="#D9D9D9"/>
<ellipse cx="82" cy="37" rx="8" ry="6" fill="#D9D9D9"/>
<ellipse cx="61.5" cy="22" rx="8.5" ry="6" fill="#D9D9D9"/>
<circle cx="158" cy="52" r="50" fill="#D0F1C0"/>
<ellipse cx="13.7997" cy="17.5025" rx="13.7997" ry="17.5025" transform="matrix(0.305989 -0.952035 0.984773 0.173846 140.651 75.7722)" fill="#4A7AD5"/>
<path d="M171.355 60.7489C171.005 63.0388 167.845 64.8008 164.297 64.6845C160.749 64.5682 158.157 62.6176 158.507 60.3277C158.857 58.0379 162.017 56.2759 165.565 56.3922C169.113 56.5085 171.705 58.459 171.355 60.7489Z" fill="#2D62CB"/>
<path d="M171.355 60.7489C171.005 63.0388 167.845 64.8008 164.297 64.6845C160.749 64.5682 158.157 62.6176 158.507 60.3277C158.857 58.0379 162.017 56.2759 165.565 56.3922C169.113 56.5085 171.705 58.459 171.355 60.7489Z" fill="#2D62CB"/>
<path d="M171.355 60.7489C171.005 63.0388 167.845 64.8008 164.297 64.6845C160.749 64.5682 158.157 62.6176 158.507 60.3277C158.857 58.0379 162.017 56.2759 165.565 56.3922C169.113 56.5085 171.705 58.459 171.355 60.7489Z" fill="#2D62CB"/>
<path d="M171.355 60.7489C171.005 63.0388 167.845 64.8008 164.297 64.6845C160.749 64.5682 158.157 62.6176 158.507 60.3277C158.857 58.0379 162.017 56.2759 165.565 56.3922C169.113 56.5085 171.705 58.459 171.355 60.7489Z" fill="#2D62CB"/>
<path d="M171.355 60.7489C171.005 63.0388 167.845 64.8008 164.297 64.6845C160.749 64.5682 158.157 62.6176 158.507 60.3277C158.857 58.0379 162.017 56.2759 165.565 56.3922C169.113 56.5085 171.705 58.459 171.355 60.7489Z" fill="#2D62CB"/>
<ellipse cx="13.7997" cy="17.5025" rx="13.7997" ry="17.5025" transform="matrix(0.305989 -0.952035 0.984773 0.173846 121 58.8733)" fill="#4A7AD5"/>
<path d="M151.704 43.8499C151.354 46.1398 148.194 47.9018 144.646 47.7855C141.098 47.6692 138.506 45.7186 138.857 43.4287C139.207 41.1389 142.367 39.3769 145.915 39.4932C149.463 39.6095 152.055 41.5601 151.704 43.8499Z" fill="#2D62CB"/>
<path d="M151.704 43.8499C151.354 46.1398 148.194 47.9018 144.646 47.7855C141.098 47.6692 138.506 45.7186 138.857 43.4287C139.207 41.1389 142.367 39.3769 145.915 39.4932C149.463 39.6095 152.055 41.5601 151.704 43.8499Z" fill="#2D62CB"/>
<path d="M151.704 43.8499C151.354 46.1398 148.194 47.9018 144.646 47.7855C141.098 47.6692 138.506 45.7186 138.857 43.4287C139.207 41.1389 142.367 39.3769 145.915 39.4932C149.463 39.6095 152.055 41.5601 151.704 43.8499Z" fill="#2D62CB"/>
<path d="M151.704 43.8499C151.354 46.1398 148.194 47.9018 144.646 47.7855C141.098 47.6692 138.506 45.7186 138.857 43.4287C139.207 41.1389 142.367 39.3769 145.915 39.4932C149.463 39.6095 152.055 41.5601 151.704 43.8499Z" fill="#2D62CB"/>
<path d="M151.704 43.8499C151.354 46.1398 148.194 47.9018 144.646 47.7855C141.098 47.6692 138.506 45.7186 138.857 43.4287C139.207 41.1389 142.367 39.3769 145.915 39.4932C149.463 39.6095 152.055 41.5601 151.704 43.8499Z" fill="#2D62CB"/>
<ellipse cx="13.7997" cy="17.5025" rx="13.7997" ry="17.5025" transform="matrix(0.305989 -0.952035 0.984773 0.173846 151.275 49.2757)" fill="#4A7AD5"/>
<path d="M181.979 34.2523C181.629 36.5422 178.469 38.3042 174.921 38.1879C171.373 38.0716 168.781 36.121 169.131 33.8312C169.481 31.5413 172.641 29.7793 176.189 29.8956C179.737 30.0119 182.329 31.9625 181.979 34.2523Z" fill="#2D62CB"/>
<path d="M181.979 34.2523C181.629 36.5422 178.469 38.3042 174.921 38.1879C171.373 38.0716 168.781 36.121 169.131 33.8312C169.481 31.5413 172.641 29.7793 176.189 29.8956C179.737 30.0119 182.329 31.9625 181.979 34.2523Z" fill="#2D62CB"/>
<path d="M181.979 34.2523C181.629 36.5422 178.469 38.3042 174.921 38.1879C171.373 38.0716 168.781 36.121 169.131 33.8312C169.481 31.5413 172.641 29.7793 176.189 29.8956C179.737 30.0119 182.329 31.9625 181.979 34.2523Z" fill="#2D62CB"/>
<path d="M181.979 34.2523C181.629 36.5422 178.469 38.3042 174.921 38.1879C171.373 38.0716 168.781 36.121 169.131 33.8312C169.481 31.5413 172.641 29.7793 176.189 29.8956C179.737 30.0119 182.329 31.9625 181.979 34.2523Z" fill="#2D62CB"/>
<path d="M181.979 34.2523C181.629 36.5422 178.469 38.3042 174.921 38.1879C171.373 38.0716 168.781 36.121 169.131 33.8312C169.481 31.5413 172.641 29.7793 176.189 29.8956C179.737 30.0119 182.329 31.9625 181.979 34.2523Z" fill="#2D62CB"/>
<circle cx="262" cy="52" r="50" fill="#D0F1C0"/>
<circle cx="262" cy="52" r="50" fill="#D0F1C0"/>
<path d="M240.154 34.6666C239.13 34.1531 237.914 34.506 237.438 35.4549L229.69 50.9169C229.214 51.8658 229.66 53.0512 230.685 53.5647C231.709 54.0782 232.925 53.7253 233.401 52.7765L240.288 39.0324L255.132 46.4708C256.157 46.9843 257.373 46.6314 257.848 45.6825C258.324 44.7337 257.878 43.5483 256.854 43.0347L240.154 34.6666ZM258.896 94.2418C259.284 95.2758 260.459 95.8645 261.52 95.5567C262.581 95.2489 263.126 94.1611 262.737 93.127L258.896 94.2418ZM237.373 36.942L258.896 94.2418L262.737 93.127L241.214 35.8273L237.373 36.942Z" fill="#59AD44"/>
<path d="M229.442 46.0698C228.309 45.7957 227.192 46.3927 226.948 47.4032L222.966 63.87C222.722 64.8805 223.442 65.9218 224.575 66.1958C225.709 66.4699 226.825 65.8729 227.07 64.8624L230.609 50.2253L247.025 54.195C248.158 54.4691 249.275 53.8721 249.519 52.8616C249.764 51.8511 249.043 50.8098 247.91 50.5358L229.442 46.0698ZM259.085 94.8672C259.713 95.7755 261.012 96.0897 261.986 95.569C262.961 95.0482 263.241 93.8898 262.612 92.9815L259.085 94.8672ZM227.236 48.8423L259.085 94.8672L262.612 92.9815L230.764 46.9565L227.236 48.8423Z" fill="#59AD44"/>
<path d="M265.829 13.6361C265.083 12.8288 263.818 12.7851 263.002 13.5383L249.713 25.8137C248.897 26.567 248.841 27.832 249.586 28.6393C250.332 29.4466 251.598 29.4903 252.413 28.737L264.226 17.8256L275.027 29.5189C275.773 30.3262 277.038 30.37 277.854 29.6167C278.669 28.8634 278.726 27.5983 277.98 26.7911L265.829 13.6361ZM258.818 93.9309C258.768 95.0344 259.623 95.9598 260.727 95.998C261.831 96.0362 262.766 95.1726 262.815 94.0691L258.818 93.9309ZM262.354 14.9309L258.818 93.9309L262.815 94.0691L266.351 15.0691L262.354 14.9309Z" fill="#59AD44"/>
<path d="M248.215 14.4953C247.291 13.8475 246.039 14.0393 245.419 14.9237L235.314 29.336C234.694 30.2205 234.94 31.4626 235.864 32.1104C236.788 32.7583 238.04 32.5665 238.66 31.6821L247.642 18.8711L261.026 28.2552C261.95 28.903 263.202 28.7112 263.822 27.8268C264.442 26.9424 264.196 25.7002 263.272 25.0524L248.215 14.4953ZM260.562 94.2861C260.777 95.3696 261.837 96.1123 262.928 95.945C264.02 95.7777 264.731 94.7638 264.516 93.6803L260.562 94.2861ZM245.115 16.3996L260.562 94.2861L264.516 93.6803L249.069 15.7938L245.115 16.3996Z" fill="#59AD44"/>
<path d="M280.954 34.2716C280.429 33.3424 279.198 33.0442 278.205 33.6054L262.026 42.752C261.033 43.3133 260.654 44.5215 261.179 45.4507C261.704 46.3799 262.935 46.6782 263.928 46.1169L278.31 37.9866L285.919 51.4463C286.444 52.3755 287.675 52.6738 288.668 52.1125C289.66 51.5512 290.04 50.343 289.514 49.4138L280.954 34.2716ZM258.873 93.2779C258.542 94.3318 259.144 95.3971 260.218 95.6572C261.291 95.9174 262.43 95.2739 262.76 94.22L258.873 93.2779ZM277.213 34.8168L258.873 93.2779L262.76 94.22L281.1 35.759L277.213 34.8168Z" fill="#59AD44"/>
<path d="M299.095 52.2397C298.938 51.2169 297.874 50.5311 296.717 50.7081L277.866 53.5915C276.709 53.7684 275.898 54.741 276.054 55.7638C276.211 56.7867 277.275 57.4724 278.432 57.2955L295.189 54.7324L297.455 69.5484C297.611 70.5712 298.676 71.2569 299.833 71.08C300.99 70.903 301.8 69.9304 301.644 68.9076L299.095 52.2397ZM261.007 92.6288C260.299 93.4771 260.479 94.6498 261.407 95.2479C262.336 95.846 263.662 95.6432 264.369 94.7948L261.007 92.6288ZM295.319 51.477L261.007 92.6288L264.369 94.7948L298.681 53.6431L295.319 51.477Z" fill="#59AD44"/>
</g>
<defs>
<clipPath id="clip0_154_370">
<rect width="316" height="103" fill="white"/>
</clipPath>
</defs>
</svg>
