<svg width="140" height="141" viewBox="0 0 140 141" fill="none" xmlns="http://www.w3.org/2000/svg">
<path d="M68.9293 27.3692C69.1333 26.856 68.8825 26.2746 68.3692 26.0707C67.856 25.8667 67.2746 26.1175 67.0707 26.6308L68.9293 27.3692ZM54.5695 63.5129L68.9293 27.3692L67.0707 26.6308L52.7108 62.7745L54.5695 63.5129Z" fill="#343434"/>
<path d="M57.8137 13.9991C57.8137 13.4469 57.366 12.9991 56.8137 12.9991C56.2614 12.9991 55.8137 13.4469 55.8137 13.9991H57.8137ZM57.8137 54.0674V13.9991H55.8137V54.0674H57.8137Z" fill="#343434"/>
<path d="M73.6529 40.7575C74.0712 40.3969 74.118 39.7655 73.7575 39.3471C73.3969 38.9288 72.7655 38.882 72.3471 39.2425L73.6529 40.7575ZM50.6529 60.5819L73.6529 40.7575L72.3471 39.2425L49.3471 59.067L50.6529 60.5819Z" fill="#343434"/>
<path d="M44.6043 26.3788C44.4056 25.8635 44.6588 25.2762 45.1699 25.067C45.6811 24.8577 46.2565 25.1059 46.4552 25.6212L44.6043 26.3788ZM58.5416 62.5225L44.6043 26.3788L46.4552 25.6212L60.3925 61.7648L58.5416 62.5225Z" fill="#343434"/>
<path d="M40.0352 39.767C39.6222 39.4003 39.5747 38.7596 39.9291 38.336C40.2835 37.9124 40.9055 37.8663 41.3185 38.233L40.0352 39.767ZM62.3584 59.5915L40.0352 39.767L41.3185 38.233L63.6416 58.0575L62.3584 59.5915Z" fill="#343434"/>
<ellipse cx="5.61444" cy="8.47477" rx="5.61444" ry="8.47477" transform="matrix(0.605478 0.795862 -0.778879 0.627174 77.2017 29)" fill="#007253"/>
<ellipse cx="5.55445" cy="8.32437" rx="5.55445" ry="8.32437" transform="matrix(-0.594009 0.804459 0.769618 0.638505 36.5988 28)" fill="#007253"/>
<ellipse cx="68.2084" cy="27.1473" rx="7.64621" ry="13.2077" transform="rotate(23.0586 68.2084 27.1473)" fill="#015F46"/>
<ellipse cx="7.45617" cy="13.1489" rx="7.45617" ry="13.1489" transform="matrix(-0.915791 0.401655 0.381849 0.924225 47.1348 11)" fill="#015F46"/>
<ellipse cx="57" cy="16" rx="10" ry="16" fill="#007253"/>
<path d="M51.2784 51.8161C54.5376 50.0584 58.4624 50.0584 61.7215 51.8161L90.4654 67.3183C100.52 72.7411 96.6679 88 85.2439 88H27.7561C16.3321 88 12.4797 72.7411 22.5345 67.3183L51.2784 51.8161Z" fill="#741A31"/>
<path d="M51.3567 138.279C54.5744 139.981 58.4256 139.981 61.6433 138.279L89.6345 123.474C99.7749 118.11 95.9628 102.75 84.4912 102.75H28.5087C17.0372 102.75 13.2251 118.11 23.3655 123.474L51.3567 138.279Z" fill="#741A31"/>
<rect x="16" y="65" width="81" height="60" rx="15" fill="#741A31"/>
<path d="M33.0881 77.5455L37.6307 91.2841H37.8097L42.3438 77.5455H45.821L39.6676 95H35.7642L29.6193 77.5455H33.0881ZM51.282 77.5455V95H48.12V77.5455H51.282ZM54.706 95V77.5455H57.8679V92.3494H65.5554V95H54.706ZM74.2145 95H68.2997V77.5455H74.3338C76.0668 77.5455 77.5554 77.8949 78.7997 78.5938C80.0497 79.2869 81.0099 80.2841 81.6804 81.5852C82.3509 82.8864 82.6861 84.4432 82.6861 86.2557C82.6861 88.0739 82.348 89.6364 81.6719 90.9432C81.0014 92.25 80.0327 93.2528 78.7656 93.9517C77.5043 94.6506 75.9872 95 74.2145 95ZM71.4616 92.2642H74.0611C75.277 92.2642 76.2912 92.0426 77.1037 91.5994C77.9162 91.1506 78.527 90.483 78.9361 89.5966C79.3452 88.7045 79.5497 87.5909 79.5497 86.2557C79.5497 84.9205 79.3452 83.8125 78.9361 82.9318C78.527 82.0455 77.9219 81.3835 77.1207 80.946C76.3253 80.5028 75.3366 80.2812 74.1548 80.2812H71.4616V92.2642Z" fill="white"/>
<path d="M30.9677 101.545H34.837L40.0188 114.193H40.2234L45.4052 101.545H49.2745V119H46.2404V107.009H46.0785L41.2546 118.949H38.9876L34.1637 106.983H34.0018V119H30.9677V101.545ZM54.9592 119H51.5842L57.729 101.545H61.6325L67.7859 119H64.4109L59.7489 105.125H59.6126L54.9592 119ZM55.07 112.156H64.2745V114.696H55.07V112.156ZM75.9996 119H70.0849V101.545H76.119C77.8519 101.545 79.3406 101.895 80.5849 102.594C81.8349 103.287 82.7951 104.284 83.4656 105.585C84.136 106.886 84.4712 108.443 84.4712 110.256C84.4712 112.074 84.1332 113.636 83.457 114.943C82.7866 116.25 81.8178 117.253 80.5508 117.952C79.2894 118.651 77.7724 119 75.9996 119ZM73.2468 116.264H75.8462C77.0621 116.264 78.0763 116.043 78.8888 115.599C79.7013 115.151 80.3121 114.483 80.7212 113.597C81.1303 112.705 81.3349 111.591 81.3349 110.256C81.3349 108.92 81.1303 107.812 80.7212 106.932C80.3121 106.045 79.707 105.384 78.9059 104.946C78.1104 104.503 77.1218 104.281 75.94 104.281H73.2468V116.264Z" fill="white"/>
</svg>
